<?xml version="1.0" standalone="no"?>
<!DOCTYPE svg PUBLIC "-//W3C//DTD SVG 20010904//EN"
 "http://www.w3.org/TR/2001/REC-SVG-20010904/DTD/svg10.dtd">
<svg version="1.0" xmlns="http://www.w3.org/2000/svg"
 width="700.000000pt" height="700.000000pt" viewBox="0 0 700.000000 700.000000"
 preserveAspectRatio="xMidYMid meet">
<metadata>
Created by potrace 1.11, written by Peter Selinger 2001-2013
</metadata>
<g transform="translate(0.000000,700.000000) scale(0.100000,-0.100000)"
fill="#000000" stroke="none">
<path d="M1930 6562 c-72 -4 -162 -20 -231 -43 -60 -19 -187 -79 -212 -99
-137 -110 -201 -176 -258 -265 -59 -92 -110 -231 -127 -345 -4 -30 -8 -1081
-7 -2335 1 -2497 -3 -2324 57 -2475 121 -305 397 -521 713 -556 33 -3 778 -6
1655 -6 1197 0 1611 3 1660 12 359 66 641 344 711 701 10 50 13 381 14 1469 2
1488 2 1467 -45 1593 -49 130 -79 162 -1127 1208 -861 860 -1018 1012 -1078
1047 -83 48 -172 78 -258 88 -57 7 -1365 12 -1467 6z m1350 -527 c0 -49 2
-421 3 -825 l3 -735 23 -70 c39 -116 80 -184 166 -271 63 -63 98 -90 165 -123
151 -74 135 -73 1033 -73 l797 0 -2 -1362 -3 -1361 -28 -67 c-53 -123 -167
-222 -302 -260 -70 -20 -3205 -19 -3275 1 -112 32 -231 126 -280 220 -52 103
-50 -23 -50 2382 0 1456 3 2244 10 2279 20 107 92 216 185 280 41 28 141 67
185 72 14 2 328 3 698 3 l672 1 0 -91z m1870 -1655 c0 -3 -285 -5 -632 -5
-626 1 -633 1 -674 23 -54 27 -101 82 -114 132 -9 32 -14 719 -10 1250 0 34
26 9 715 -680 393 -393 715 -717 715 -720z"/>
<path d="M2397 3278 c-49 -5 -80 -14 -108 -32 -113 -76 -133 -238 -39 -334 72
-73 -12 -68 1255 -67 1008 1 1144 3 1175 17 86 37 145 146 129 236 -17 89 -91
165 -173 177 -57 9 -2154 12 -2239 3z"/>
<path d="M2324 2171 c-114 -52 -167 -187 -114 -296 24 -50 53 -78 106 -104 38
-20 68 -20 1173 -21 826 0 1144 3 1172 11 177 54 203 301 40 397 l-46 27
-1145 2 c-1095 2 -1147 2 -1186 -16z"/>
</g>
</svg>
